<?xml version="1.0" encoding="UTF-8" standalone="no"?>
<svg
   xmlns="http://www.w3.org/2000/svg"
   width="210mm"
   height="297mm"
   viewBox="0 0 210 297"
   preserveAspectRatio="none">
  <g style="fill: #ffffff; opacity: .2;">
    <path
       d="M 0,295.48809 C 0,0.66666665 208.64285,22.589285 208.64285,22.589285 L 209.39881,-0.08928571 -0.75595238,0.66666665 Z"
       id="path37" />
    <path
       d="M 1.4225086,798.19197 C 0.32584314,707.96889 -0.57142857,492.29031 -0.57142857,318.90626 V 3.6625422 L 243,3.6596088 C 376.96429,3.6579953 554.71429,2.8068416 638,1.7681562 l 151.42857,-1.88851905 -0.85826,41.63889685 -0.85825,41.638897 -43.28417,0.163114 c -45.0558,0.169794 -50.7962,0.634317 -97.85646,7.91868 C 384.13526,131.86119 183.80464,303.77391 82.736774,575.09111 45.475271,675.1198 18.287863,799.8664 7.0800883,922.23397 3.5247843,961.05111 3.3574826,957.38306 1.4225086,798.19197 Z"
       id="path39"
       transform="scale(0.26458333)" />
  </g>
</svg>
